<svg xmlns="http://www.w3.org/2000/svg" xmlns:xlink="http://www.w3.org/1999/xlink" width="1509" zoomAndPan="magnify" viewBox="0 0 1131.75 667.499985" height="890" preserveAspectRatio="xMidYMid meet" version="1.0"><defs><g/><clipPath id="151a4406dd"><rect x="0" width="830" y="0" height="461"/></clipPath><clipPath id="01bdfcd5c6"><path d="M 0.578125 57 L 134 57 L 134 90.121094 L 0.578125 90.121094 Z M 0.578125 57 " clip-rule="nonzero"/></clipPath><clipPath id="7922146b2c"><rect x="0" width="134" y="0" height="34"/></clipPath><clipPath id="71d3f8c0f3"><path d="M 22 0.667969 L 135.597656 0.667969 L 135.597656 34 L 22 34 Z M 22 0.667969 " clip-rule="nonzero"/></clipPath><clipPath id="14f2290bd7"><rect x="0" width="114" y="0" height="34"/></clipPath><clipPath id="3a7d77ad6b"><path d="M 2 28 L 135.597656 28 L 135.597656 62 L 2 62 Z M 2 28 " clip-rule="nonzero"/></clipPath><clipPath id="319033bdf5"><rect x="0" width="134" y="0" height="34"/></clipPath><clipPath id="1c3f1deeb2"><rect x="0" width="136" y="0" height="91"/></clipPath></defs><g transform="matrix(1, 0, 0, 1, 152, 99)"><g clip-path="url(#151a4406dd)"><g fill="#ffffff" fill-opacity="1"><g transform="translate(4.192794, 322.73154)"><g><path d="M 0 -314.875 L 112.09375 -314.875 L 193.96875 -133.828125 C 199.425781 -141.378906 203.519531 -148.671875 206.25 -155.703125 C 208.976562 -162.734375 210.34375 -171.179688 210.34375 -181.046875 C 210.34375 -194.273438 208.347656 -206.1875 204.359375 -216.78125 C 200.367188 -227.382812 195.695312 -237.144531 190.34375 -246.0625 C 184.988281 -254.988281 180.316406 -263.546875 176.328125 -271.734375 C 172.335938 -279.921875 170.34375 -288.109375 170.34375 -296.296875 C 170.34375 -300.703125 171.335938 -304.898438 173.328125 -308.890625 C 175.328125 -312.878906 178.007812 -314.875 181.375 -314.875 L 291.265625 -314.875 L 145.46875 6.296875 Z M 0 -314.875 "/></g></g></g><g fill="#ffffff" fill-opacity="1"><g transform="translate(295.349679, 322.73154)"><g><path d="M 9.453125 0 L 9.453125 -314.875 L 122.796875 -314.875 L 122.796875 0 Z M 9.453125 0 "/></g></g></g><g fill="#ffffff" fill-opacity="1"><g transform="translate(427.550648, 322.73154)"><g><path d="M 9.453125 -314.875 L 184.203125 -314.875 C 199.109375 -314.875 212.4375 -311.878906 224.1875 -305.890625 C 235.945312 -299.910156 245.179688 -291.410156 251.890625 -280.390625 C 258.609375 -269.367188 261.96875 -256.300781 261.96875 -241.1875 C 261.96875 -230.488281 259.445312 -220.832031 254.40625 -212.21875 C 249.375 -203.613281 242.609375 -196.375 234.109375 -190.5 C 225.609375 -184.625 216.160156 -180.109375 205.765625 -176.953125 C 195.378906 -173.804688 184.9375 -172.234375 174.4375 -172.234375 C 169.613281 -172.234375 165.363281 -172.441406 161.6875 -172.859375 C 158.007812 -173.285156 154.28125 -173.8125 150.5 -174.4375 C 146.726562 -175.070312 142.007812 -175.804688 136.34375 -176.640625 C 142.425781 -173.492188 150.03125 -170.609375 159.15625 -167.984375 C 168.289062 -165.359375 178.160156 -162.523438 188.765625 -159.484375 C 199.367188 -156.441406 209.8125 -152.769531 220.09375 -148.46875 C 230.382812 -144.164062 239.726562 -138.707031 248.125 -132.09375 C 256.519531 -125.476562 263.179688 -117.289062 268.109375 -107.53125 C 273.046875 -97.769531 275.304688 -85.859375 274.890625 -71.796875 C 274.679688 -59.203125 272.109375 -48.648438 267.171875 -40.140625 C 262.234375 -31.640625 255.773438 -24.710938 247.796875 -19.359375 C 239.828125 -14.003906 231.117188 -9.960938 221.671875 -7.234375 C 212.222656 -4.515625 202.671875 -2.628906 193.015625 -1.578125 C 183.359375 -0.523438 174.4375 0 166.25 0 L 9.453125 0 Z M 23.609375 -301.328125 C 24.660156 -294.828125 27.8125 -286.695312 33.0625 -276.9375 C 38.3125 -267.175781 44.867188 -257.046875 52.734375 -246.546875 C 60.609375 -236.046875 69.320312 -226.226562 78.875 -217.09375 C 88.425781 -207.96875 98.1875 -200.519531 108.15625 -194.75 C 118.125 -188.976562 127.625 -186.09375 136.65625 -186.09375 C 146.101562 -186.09375 154.078125 -189.453125 160.578125 -196.171875 C 167.085938 -202.890625 170.34375 -210.96875 170.34375 -220.40625 C 170.34375 -231.53125 167.71875 -241.921875 162.46875 -251.578125 C 157.226562 -261.234375 149.9375 -269.835938 140.59375 -277.390625 C 131.25 -284.953125 120.4375 -290.832031 108.15625 -295.03125 C 95.875 -299.226562 82.597656 -301.328125 68.328125 -301.328125 Z M 172.234375 -64.546875 C 172.234375 -78.191406 168.925781 -91.3125 162.3125 -103.90625 C 155.707031 -116.5 147.050781 -128.722656 136.34375 -140.578125 C 125.632812 -152.441406 114.035156 -164.25 101.546875 -176 C 89.054688 -187.757812 76.828125 -199.726562 64.859375 -211.90625 C 52.898438 -224.082031 42.507812 -236.679688 33.6875 -249.703125 C 33.6875 -245.710938 35.628906 -239.832031 39.515625 -232.0625 C 43.398438 -224.289062 48.4375 -215.15625 54.625 -204.65625 C 60.820312 -194.164062 67.4375 -182.675781 74.46875 -170.1875 C 81.5 -157.695312 88.109375 -144.734375 94.296875 -131.296875 C 100.492188 -117.867188 105.535156 -104.332031 109.421875 -90.6875 C 113.304688 -77.039062 115.25 -63.707031 115.25 -50.6875 L 115.25 -10.703125 C 121.332031 -10.703125 127.679688 -11.75 134.296875 -13.84375 C 140.910156 -15.945312 147.101562 -19.148438 152.875 -23.453125 C 158.644531 -27.753906 163.3125 -33.316406 166.875 -40.140625 C 170.445312 -46.960938 172.234375 -55.097656 172.234375 -64.546875 Z M 172.234375 -64.546875 "/></g></g></g><g fill="#ffffff" fill-opacity="1"><g transform="translate(711.782718, 322.73154)"><g><path d="M 9.453125 -39.984375 C 9.453125 -53.628906 13.703125 -64.703125 22.203125 -73.203125 C 30.703125 -81.703125 41.878906 -85.953125 55.734375 -85.953125 C 69.378906 -85.953125 80.453125 -81.703125 88.953125 -73.203125 C 97.453125 -64.703125 101.703125 -53.628906 101.703125 -39.984375 C 101.703125 -26.128906 97.453125 -14.953125 88.953125 -6.453125 C 80.453125 2.042969 69.378906 6.296875 55.734375 6.296875 C 41.878906 6.296875 30.703125 2.042969 22.203125 -6.453125 C 13.703125 -14.953125 9.453125 -26.128906 9.453125 -39.984375 Z M 9.453125 -39.984375 "/></g></g></g></g></g><g transform="matrix(1, 0, 0, 1, 853, 496)"><g clip-path="url(#1c3f1deeb2)"><g clip-path="url(#01bdfcd5c6)"><g transform="matrix(1, 0, 0, 1, -0.000000000000227374, 57)"><g clip-path="url(#7922146b2c)"><g fill="#ffffff" fill-opacity="1"><g transform="translate(2.313622, 24.859289)"><g><path d="M 15.054688 0.292969 C 15.816406 0.367188 16.40625 -0.0976562 16.40625 -0.835938 L 16.40625 -2.015625 C 16.40625 -2.480469 16.109375 -2.898438 15.273438 -2.996094 C 13.605469 -3.167969 12.992188 -4.738281 12.207031 -6.703125 C 14.683594 -7.539062 15.960938 -9.28125 15.960938 -11.617188 C 15.960938 -15.027344 13.582031 -17.140625 9.039062 -17.164062 L 2.429688 -17.191406 C 1.546875 -17.191406 1.398438 -16.992188 1.398438 -16.160156 L 1.398438 -14.832031 C 1.398438 -13.925781 1.597656 -13.726562 2.429688 -13.726562 L 3.21875 -13.679688 L 3.21875 -3.488281 L 2.429688 -3.460938 C 1.597656 -3.4375 1.398438 -3.242188 1.398438 -2.332031 L 1.398438 -1.105469 C 1.398438 -0.195312 1.546875 0.0234375 2.429688 0.0234375 L 7.761719 0.0234375 C 8.25 0.0234375 8.398438 -0.195312 8.398438 -1.105469 L 8.398438 -2.332031 C 8.398438 -3.242188 8.226562 -3.4375 7.761719 -3.460938 L 6.949219 -3.488281 L 6.902344 -6.164062 C 7.832031 -6.164062 8.300781 -6.164062 8.742188 -6.1875 C 9.699219 -2.675781 11.617188 0.0742188 15.054688 0.292969 Z M 6.949219 -9.355469 L 6.949219 -13.972656 L 8.128906 -13.972656 C 12.105469 -13.972656 12.277344 -12.671875 12.277344 -11.566406 C 12.277344 -10.3125 11.171875 -9.355469 7.980469 -9.355469 Z M 6.949219 -9.355469 "/></g></g></g><g fill="#ffffff" fill-opacity="1"><g transform="translate(19.430387, 24.859289)"><g><path d="M 2.429688 0.0234375 L 14.390625 0 C 15.175781 0 15.347656 -0.195312 15.347656 -1.054688 L 15.347656 -5.183594 C 15.347656 -6.015625 15.175781 -6.261719 14.414062 -6.261719 L 13.089844 -6.261719 C 12.671875 -6.261719 12.105469 -6.238281 12.082031 -5.230469 L 11.933594 -3.511719 L 6.949219 -3.511719 L 6.949219 -6.851562 L 9.136719 -6.851562 L 9.183594 -6.261719 C 9.210938 -5.96875 9.257812 -5.597656 9.554688 -5.597656 L 10.65625 -5.597656 C 11.222656 -5.597656 11.34375 -5.992188 11.34375 -6.359375 L 11.34375 -10.65625 C 11.34375 -11.273438 11.222656 -11.417969 10.65625 -11.417969 L 9.554688 -11.417969 C 9.332031 -11.417969 9.257812 -11.222656 9.234375 -11 L 9.160156 -10.363281 L 6.949219 -10.339844 L 6.949219 -13.679688 L 11.910156 -13.679688 L 12.035156 -11.933594 C 12.082031 -10.929688 12.621094 -10.902344 13.089844 -10.902344 L 14.367188 -10.902344 C 15.128906 -10.902344 15.324219 -11.125 15.324219 -11.984375 L 15.324219 -16.109375 C 15.324219 -17.042969 15.175781 -17.191406 14.269531 -17.191406 L 2.429688 -17.191406 C 1.546875 -17.191406 1.398438 -16.96875 1.398438 -16.0625 L 1.398438 -14.832031 C 1.398438 -13.925781 1.597656 -13.726562 2.429688 -13.726562 L 3.21875 -13.679688 L 3.21875 -3.488281 L 2.429688 -3.460938 C 1.597656 -3.4375 1.398438 -3.242188 1.398438 -2.332031 L 1.398438 -1.105469 C 1.398438 -0.195312 1.546875 0.0234375 2.429688 0.0234375 Z M 2.429688 0.0234375 "/></g></g></g><g fill="#ffffff" fill-opacity="1"><g transform="translate(36.326131, 24.859289)"><g><path d="M 9.011719 0.464844 C 12.597656 0.464844 15.496094 -1.007812 15.742188 -4.863281 C 15.816406 -5.625 15.375 -6.214844 14.613281 -6.214844 L 13.136719 -6.214844 C 12.671875 -6.214844 12.230469 -5.96875 12.132812 -5.453125 C 11.960938 -3.757812 10.730469 -3.070312 8.988281 -3.070312 C 6.703125 -3.070312 5.476562 -4.8125 5.453125 -8.449219 C 5.476562 -12.15625 6.703125 -13.972656 8.988281 -13.972656 C 10.804688 -13.972656 11.761719 -13.210938 12.179688 -10.953125 C 12.230469 -9.898438 12.894531 -9.871094 13.410156 -9.871094 L 14.90625 -9.871094 C 15.839844 -9.871094 16.035156 -10.117188 16.035156 -11 L 16.035156 -16.0625 C 16.035156 -16.945312 15.839844 -17.140625 14.929688 -17.140625 L 14.390625 -17.140625 C 13.753906 -17.140625 13.582031 -17.019531 13.480469 -16.648438 L 13.285156 -15.667969 C 12.449219 -17.09375 11.074219 -17.507812 9.011719 -17.507812 C 3.90625 -17.507812 1.742188 -14.539062 1.71875 -8.472656 C 1.742188 -2.503906 3.90625 0.464844 9.011719 0.464844 Z M 9.011719 0.464844 "/></g></g></g><g fill="#ffffff" fill-opacity="1"><g transform="translate(54.056844, 24.859289)"><g><path d="M 9.160156 -17.507812 C 3.878906 -17.507812 1.71875 -14.511719 1.71875 -8.449219 C 1.71875 -2.503906 3.878906 0.464844 9.160156 0.464844 C 14.390625 0.464844 16.527344 -2.503906 16.527344 -8.449219 C 16.527344 -14.511719 14.390625 -17.507812 9.160156 -17.507812 Z M 5.453125 -8.421875 C 5.453125 -12.105469 6.730469 -13.972656 9.136719 -13.972656 C 11.542969 -13.972656 12.792969 -12.105469 12.792969 -8.421875 C 12.792969 -4.835938 11.542969 -3.046875 9.136719 -3.046875 C 6.730469 -3.046875 5.453125 -4.835938 5.453125 -8.421875 Z M 5.453125 -8.421875 "/></g></g></g><g fill="#ffffff" fill-opacity="1"><g transform="translate(72.426079, 24.859289)"><g><path d="M 8.03125 0.0234375 L 10.511719 0.0234375 C 11.664062 0.0234375 11.960938 -0.394531 12.5 -2.0625 L 16.476562 -14.414062 L 17.117188 -14.441406 C 18 -14.488281 18.125 -14.683594 18.125 -15.570312 L 18.125 -16.160156 C 18.125 -17.042969 17.953125 -17.265625 17.09375 -17.265625 L 12.035156 -17.265625 C 11.171875 -17.265625 10.953125 -17.042969 10.953125 -16.160156 L 10.953125 -15.570312 C 10.953125 -14.683594 11.101562 -14.390625 11.984375 -14.390625 L 12.722656 -14.390625 L 9.308594 -2.773438 L 5.894531 -14.390625 L 6.65625 -14.390625 C 7.539062 -14.390625 7.6875 -14.683594 7.6875 -15.570312 L 7.6875 -16.160156 C 7.6875 -17.042969 7.464844 -17.265625 6.605469 -17.265625 L 1.546875 -17.265625 C 0.6875 -17.265625 0.515625 -17.042969 0.515625 -16.160156 L 0.515625 -15.570312 C 0.515625 -14.683594 0.636719 -14.511719 1.523438 -14.441406 L 2.039062 -14.414062 L 5.992188 -2.160156 C 6.582031 -0.367188 6.851562 0.0234375 8.03125 0.0234375 Z M 8.03125 0.0234375 "/></g></g></g><g fill="#ffffff" fill-opacity="1"><g transform="translate(91.384687, 24.859289)"><g><path d="M 2.429688 0.0234375 L 14.390625 0 C 15.175781 0 15.347656 -0.195312 15.347656 -1.054688 L 15.347656 -5.183594 C 15.347656 -6.015625 15.175781 -6.261719 14.414062 -6.261719 L 13.089844 -6.261719 C 12.671875 -6.261719 12.105469 -6.238281 12.082031 -5.230469 L 11.933594 -3.511719 L 6.949219 -3.511719 L 6.949219 -6.851562 L 9.136719 -6.851562 L 9.183594 -6.261719 C 9.210938 -5.96875 9.257812 -5.597656 9.554688 -5.597656 L 10.65625 -5.597656 C 11.222656 -5.597656 11.34375 -5.992188 11.34375 -6.359375 L 11.34375 -10.65625 C 11.34375 -11.273438 11.222656 -11.417969 10.65625 -11.417969 L 9.554688 -11.417969 C 9.332031 -11.417969 9.257812 -11.222656 9.234375 -11 L 9.160156 -10.363281 L 6.949219 -10.339844 L 6.949219 -13.679688 L 11.910156 -13.679688 L 12.035156 -11.933594 C 12.082031 -10.929688 12.621094 -10.902344 13.089844 -10.902344 L 14.367188 -10.902344 C 15.128906 -10.902344 15.324219 -11.125 15.324219 -11.984375 L 15.324219 -16.109375 C 15.324219 -17.042969 15.175781 -17.191406 14.269531 -17.191406 L 2.429688 -17.191406 C 1.546875 -17.191406 1.398438 -16.96875 1.398438 -16.0625 L 1.398438 -14.832031 C 1.398438 -13.925781 1.597656 -13.726562 2.429688 -13.726562 L 3.21875 -13.679688 L 3.21875 -3.488281 L 2.429688 -3.460938 C 1.597656 -3.4375 1.398438 -3.242188 1.398438 -2.332031 L 1.398438 -1.105469 C 1.398438 -0.195312 1.546875 0.0234375 2.429688 0.0234375 Z M 2.429688 0.0234375 "/></g></g></g><g fill="#ffffff" fill-opacity="1"><g transform="translate(108.28043, 24.859289)"><g><path d="M 15.054688 0.292969 C 15.816406 0.367188 16.40625 -0.0976562 16.40625 -0.835938 L 16.40625 -2.015625 C 16.40625 -2.480469 16.109375 -2.898438 15.273438 -2.996094 C 13.605469 -3.167969 12.992188 -4.738281 12.207031 -6.703125 C 14.683594 -7.539062 15.960938 -9.28125 15.960938 -11.617188 C 15.960938 -15.027344 13.582031 -17.140625 9.039062 -17.164062 L 2.429688 -17.191406 C 1.546875 -17.191406 1.398438 -16.992188 1.398438 -16.160156 L 1.398438 -14.832031 C 1.398438 -13.925781 1.597656 -13.726562 2.429688 -13.726562 L 3.21875 -13.679688 L 3.21875 -3.488281 L 2.429688 -3.460938 C 1.597656 -3.4375 1.398438 -3.242188 1.398438 -2.332031 L 1.398438 -1.105469 C 1.398438 -0.195312 1.546875 0.0234375 2.429688 0.0234375 L 7.761719 0.0234375 C 8.25 0.0234375 8.398438 -0.195312 8.398438 -1.105469 L 8.398438 -2.332031 C 8.398438 -3.242188 8.226562 -3.4375 7.761719 -3.460938 L 6.949219 -3.488281 L 6.902344 -6.164062 C 7.832031 -6.164062 8.300781 -6.164062 8.742188 -6.1875 C 9.699219 -2.675781 11.617188 0.0742188 15.054688 0.292969 Z M 6.949219 -9.355469 L 6.949219 -13.972656 L 8.128906 -13.972656 C 12.105469 -13.972656 12.277344 -12.671875 12.277344 -11.566406 C 12.277344 -10.3125 11.171875 -9.355469 7.980469 -9.355469 Z M 6.949219 -9.355469 "/></g></g></g><g fill="#ffffff" fill-opacity="1"><g transform="translate(125.397196, 24.859289)"><g><path d="M 4.003906 0.269531 C 4.691406 0.269531 5.230469 0.0742188 5.769531 -0.292969 C 6.285156 -0.589844 6.484375 -1.324219 6.484375 -2.257812 C 6.484375 -3.4375 6.238281 -4.078125 5.769531 -4.347656 C 5.207031 -4.664062 4.691406 -4.789062 4.003906 -4.789062 C 3.316406 -4.789062 2.75 -4.59375 2.257812 -4.320312 C 1.769531 -4.027344 1.597656 -3.191406 1.597656 -2.113281 C 1.597656 -1.082031 1.792969 -0.441406 2.257812 -0.171875 C 2.773438 0.148438 3.316406 0.269531 4.003906 0.269531 Z M 4.003906 0.269531 "/></g></g></g></g></g></g><g clip-path="url(#71d3f8c0f3)"><g transform="matrix(1, 0, 0, 1, 22, -0.000000000000113687)"><g clip-path="url(#14f2290bd7)"><g fill="#ffffff" fill-opacity="1"><g transform="translate(2.742225, 25.37668)"><g><path d="M 2.429688 0.0234375 L 8.792969 0 C 13.652344 0 16.109375 -2.308594 16.160156 -8.449219 C 16.109375 -14.488281 13.652344 -17.191406 8.792969 -17.191406 L 2.429688 -17.214844 C 1.546875 -17.191406 1.398438 -16.992188 1.398438 -16.085938 L 1.398438 -15.546875 C 1.398438 -13.949219 1.597656 -13.753906 2.429688 -13.753906 L 3.21875 -13.703125 L 3.21875 -3.488281 L 2.429688 -3.460938 C 1.597656 -3.4375 1.398438 -3.242188 1.398438 -1.644531 L 1.398438 -1.105469 C 1.398438 -0.195312 1.546875 0 2.429688 0.0234375 Z M 6.949219 -3.488281 L 6.949219 -13.679688 L 8.078125 -13.679688 C 11.371094 -13.679688 12.425781 -11.910156 12.425781 -8.421875 C 12.425781 -5.253906 11.371094 -3.488281 8.078125 -3.488281 Z M 6.949219 -3.488281 "/></g></g></g><g fill="#ffffff" fill-opacity="1"><g transform="translate(20.472937, 25.37668)"><g><path d="M 2.429688 0.0234375 L 14.390625 0 C 15.175781 0 15.347656 -0.195312 15.347656 -1.054688 L 15.347656 -5.183594 C 15.347656 -6.015625 15.175781 -6.261719 14.414062 -6.261719 L 13.089844 -6.261719 C 12.671875 -6.261719 12.105469 -6.238281 12.082031 -5.230469 L 11.933594 -3.511719 L 6.949219 -3.511719 L 6.949219 -6.851562 L 9.136719 -6.851562 L 9.183594 -6.261719 C 9.210938 -5.96875 9.257812 -5.597656 9.554688 -5.597656 L 10.65625 -5.597656 C 11.222656 -5.597656 11.34375 -5.992188 11.34375 -6.359375 L 11.34375 -10.65625 C 11.34375 -11.273438 11.222656 -11.417969 10.65625 -11.417969 L 9.554688 -11.417969 C 9.332031 -11.417969 9.257812 -11.222656 9.234375 -11 L 9.160156 -10.363281 L 6.949219 -10.339844 L 6.949219 -13.679688 L 11.910156 -13.679688 L 12.035156 -11.933594 C 12.082031 -10.929688 12.621094 -10.902344 13.089844 -10.902344 L 14.367188 -10.902344 C 15.128906 -10.902344 15.324219 -11.125 15.324219 -11.984375 L 15.324219 -16.109375 C 15.324219 -17.042969 15.175781 -17.191406 14.269531 -17.191406 L 2.429688 -17.191406 C 1.546875 -17.191406 1.398438 -16.96875 1.398438 -16.0625 L 1.398438 -14.832031 C 1.398438 -13.925781 1.597656 -13.726562 2.429688 -13.726562 L 3.21875 -13.679688 L 3.21875 -3.488281 L 2.429688 -3.460938 C 1.597656 -3.4375 1.398438 -3.242188 1.398438 -2.332031 L 1.398438 -1.105469 C 1.398438 -0.195312 1.546875 0.0234375 2.429688 0.0234375 Z M 2.429688 0.0234375 "/></g></g></g><g fill="#ffffff" fill-opacity="1"><g transform="translate(37.368681, 25.37668)"><g><path d="M 2.429688 0.0234375 L 8.546875 0.0234375 C 9.40625 0.0234375 9.554688 -0.195312 9.554688 -1.105469 L 9.554688 -2.332031 C 9.554688 -3.242188 9.382812 -3.4375 8.523438 -3.460938 L 6.949219 -3.488281 L 6.902344 -5.84375 L 8.546875 -5.84375 C 13.382812 -5.871094 15.839844 -7.980469 15.839844 -11.445312 C 15.839844 -15.027344 13.53125 -17.140625 8.988281 -17.164062 L 2.429688 -17.191406 C 1.546875 -17.191406 1.398438 -16.992188 1.398438 -16.160156 L 1.398438 -14.832031 C 1.398438 -13.925781 1.597656 -13.726562 2.429688 -13.726562 L 3.21875 -13.679688 L 3.21875 -3.488281 L 2.429688 -3.460938 C 1.597656 -3.4375 1.398438 -3.242188 1.398438 -2.332031 L 1.398438 -1.105469 C 1.398438 -0.195312 1.546875 0.0234375 2.429688 0.0234375 Z M 6.949219 -9.039062 L 6.949219 -13.972656 L 8.054688 -13.972656 C 12.058594 -13.972656 12.179688 -12.671875 12.179688 -11.417969 C 12.179688 -9.996094 11.101562 -9.039062 7.933594 -9.039062 Z M 6.949219 -9.039062 "/></g></g></g><g fill="#ffffff" fill-opacity="1"><g transform="translate(54.067946, 25.37668)"><g><path d="M 2.457031 0.0234375 L 13.652344 0.0234375 C 14.585938 0.0234375 14.710938 -0.121094 14.710938 -1.054688 L 14.710938 -5.574219 C 14.710938 -6.410156 14.539062 -6.65625 13.753906 -6.65625 L 12.476562 -6.65625 C 12.035156 -6.65625 11.445312 -6.628906 11.417969 -5.597656 L 11.296875 -3.488281 L 7.171875 -3.488281 L 7.171875 -13.652344 L 8.472656 -13.679688 C 9.308594 -13.679688 9.527344 -13.875 9.527344 -14.808594 L 9.527344 -16.035156 C 9.527344 -16.945312 9.382812 -17.164062 8.523438 -17.164062 L 2.429688 -17.164062 C 1.546875 -17.164062 1.398438 -16.945312 1.398438 -16.035156 L 1.398438 -14.808594 C 1.398438 -13.875 1.644531 -13.679688 2.480469 -13.679688 L 3.4375 -13.652344 L 3.4375 -3.488281 L 2.480469 -3.460938 C 1.621094 -3.460938 1.449219 -3.265625 1.449219 -2.359375 L 1.449219 -1.105469 C 1.449219 -0.195312 1.597656 0.0234375 2.457031 0.0234375 Z M 2.457031 0.0234375 "/></g></g></g><g fill="#ffffff" fill-opacity="1"><g transform="translate(69.784915, 25.37668)"><g><path d="M 9.160156 -17.507812 C 3.878906 -17.507812 1.71875 -14.511719 1.71875 -8.449219 C 1.71875 -2.503906 3.878906 0.464844 9.160156 0.464844 C 14.390625 0.464844 16.527344 -2.503906 16.527344 -8.449219 C 16.527344 -14.511719 14.390625 -17.507812 9.160156 -17.507812 Z M 5.453125 -8.421875 C 5.453125 -12.105469 6.730469 -13.972656 9.136719 -13.972656 C 11.542969 -13.972656 12.792969 -12.105469 12.792969 -8.421875 C 12.792969 -4.835938 11.542969 -3.046875 9.136719 -3.046875 C 6.730469 -3.046875 5.453125 -4.835938 5.453125 -8.421875 Z M 5.453125 -8.421875 "/></g></g></g><g fill="#ffffff" fill-opacity="1"><g transform="translate(87.957672, 25.37668)"><g><path d="M 5.820312 0.0234375 L 11.515625 0.0234375 C 12.378906 0.0234375 12.523438 -0.195312 12.523438 -1.105469 L 12.523438 -2.332031 C 12.523438 -3.242188 12.351562 -3.4375 11.492188 -3.460938 L 10.535156 -3.488281 L 10.535156 -5.253906 L 15.101562 -14.414062 L 15.667969 -14.441406 C 16.527344 -14.464844 16.675781 -14.660156 16.675781 -15.570312 L 16.675781 -16.160156 C 16.675781 -17.042969 16.476562 -17.238281 15.644531 -17.238281 L 10.585938 -17.238281 C 9.726562 -17.238281 9.503906 -17.042969 9.503906 -16.160156 L 9.503906 -15.570312 C 9.503906 -14.660156 9.652344 -14.414062 10.535156 -14.390625 L 11.371094 -14.367188 L 8.695312 -8.9375 L 5.96875 -14.367188 L 6.730469 -14.390625 C 7.636719 -14.414062 7.761719 -14.660156 7.761719 -15.570312 L 7.761719 -16.160156 C 7.761719 -17.042969 7.539062 -17.238281 6.679688 -17.238281 L 1.621094 -17.238281 C 0.785156 -17.238281 0.589844 -17.042969 0.589844 -16.160156 L 0.589844 -15.570312 C 0.589844 -14.660156 0.738281 -14.464844 1.597656 -14.441406 L 2.0625 -14.441406 L 6.800781 -5.230469 L 6.800781 -3.488281 L 5.84375 -3.460938 C 4.984375 -3.4375 4.8125 -3.242188 4.8125 -2.332031 L 4.8125 -1.105469 C 4.8125 -0.195312 4.960938 0.0234375 5.820312 0.0234375 Z M 5.820312 0.0234375 "/></g></g></g><g fill="#ffffff" fill-opacity="1"><g transform="translate(103.379955, 25.37668)"><g><path d="M 4.003906 0.269531 C 4.691406 0.269531 5.230469 0.0742188 5.769531 -0.292969 C 6.285156 -0.589844 6.484375 -1.324219 6.484375 -2.257812 C 6.484375 -3.4375 6.238281 -4.078125 5.769531 -4.347656 C 5.207031 -4.664062 4.691406 -4.789062 4.003906 -4.789062 C 3.316406 -4.789062 2.75 -4.59375 2.257812 -4.320312 C 1.769531 -4.027344 1.597656 -3.191406 1.597656 -2.113281 C 1.597656 -1.082031 1.792969 -0.441406 2.257812 -0.171875 C 2.773438 0.148438 3.316406 0.269531 4.003906 0.269531 Z M 4.003906 0.269531 "/></g></g></g></g></g></g><g clip-path="url(#3a7d77ad6b)"><g transform="matrix(1, 0, 0, 1, 2, 28)"><g clip-path="url(#319033bdf5)"><g fill="#ffffff" fill-opacity="1"><g transform="translate(1.062433, 25.617984)"><g><path d="M 9.160156 -17.507812 C 3.878906 -17.507812 1.71875 -14.511719 1.71875 -8.449219 C 1.71875 -2.503906 3.878906 0.464844 9.160156 0.464844 C 14.390625 0.464844 16.527344 -2.503906 16.527344 -8.449219 C 16.527344 -14.511719 14.390625 -17.507812 9.160156 -17.507812 Z M 5.453125 -8.421875 C 5.453125 -12.105469 6.730469 -13.972656 9.136719 -13.972656 C 11.542969 -13.972656 12.792969 -12.105469 12.792969 -8.421875 C 12.792969 -4.835938 11.542969 -3.046875 9.136719 -3.046875 C 6.730469 -3.046875 5.453125 -4.835938 5.453125 -8.421875 Z M 5.453125 -8.421875 "/></g></g></g><g fill="#ffffff" fill-opacity="1"><g transform="translate(19.628115, 25.617984)"><g><path d="M 2.429688 0.0234375 L 8.742188 0 C 13.433594 -0.0234375 15.890625 -2.1875 15.890625 -4.960938 C 15.890625 -7.34375 14.316406 -8.914062 11.8125 -9.136719 C 13.726562 -9.480469 14.929688 -10.878906 14.929688 -12.769531 C 14.929688 -15.421875 13.015625 -17.164062 8.421875 -17.191406 L 2.429688 -17.214844 C 1.546875 -17.214844 1.398438 -16.992188 1.398438 -16.183594 L 1.398438 -14.832031 C 1.398438 -13.925781 1.597656 -13.726562 2.429688 -13.726562 L 3.265625 -13.703125 L 3.265625 -3.488281 L 2.429688 -3.460938 C 1.597656 -3.4375 1.398438 -3.242188 1.398438 -2.332031 L 1.398438 -1.007812 C 1.398438 -0.195312 1.546875 0.0234375 2.429688 0.0234375 Z M 7 -3.191406 L 7 -7.367188 L 8.71875 -7.367188 C 11.148438 -7.367188 12.15625 -6.753906 12.15625 -5.355469 C 12.15625 -4.320312 11.910156 -3.265625 8.792969 -3.191406 Z M 7 -10.167969 L 7 -13.972656 L 8.644531 -13.996094 C 10.953125 -14.023438 11.199219 -12.867188 11.199219 -12.007812 C 11.199219 -11.246094 10.609375 -10.242188 8.71875 -10.167969 Z M 7 -10.167969 "/></g></g></g><g fill="#ffffff" fill-opacity="1"><g transform="translate(37.113262, 25.617984)"><g><path d="M 8.152344 0.34375 C 12.597656 0.34375 14.734375 -1.03125 14.734375 -4.863281 C 14.734375 -8.152344 12.621094 -8.988281 8.988281 -10.242188 C 6.65625 -11.101562 5.574219 -11.445312 5.574219 -12.449219 C 5.574219 -13.628906 6.558594 -13.949219 8.152344 -13.949219 C 9.726562 -13.972656 10.902344 -13.285156 11.320312 -11.761719 C 11.617188 -10.78125 12.105469 -10.683594 12.621094 -10.683594 L 13.726562 -10.683594 C 14.660156 -10.683594 14.785156 -10.929688 14.785156 -11.835938 L 14.882812 -15.988281 C 14.90625 -16.894531 14.636719 -17.09375 13.726562 -17.09375 L 13.1875 -17.09375 C 12.550781 -17.09375 12.378906 -16.945312 12.277344 -16.601562 L 12.132812 -15.546875 C 11.394531 -16.75 10.019531 -17.460938 7.90625 -17.460938 C 4.25 -17.460938 1.867188 -16.304688 1.867188 -12.917969 C 1.890625 -10.609375 2.875 -8.472656 6.214844 -7.390625 C 9.0625 -6.433594 10.976562 -5.96875 10.976562 -5.007812 C 10.976562 -3.609375 9.96875 -3.167969 7.933594 -3.144531 C 6.730469 -3.117188 5.328125 -3.683594 5.378906 -5.722656 C 5.378906 -6.238281 4.8125 -6.484375 4.347656 -6.484375 L 2.875 -6.484375 C 2.113281 -6.484375 1.816406 -5.917969 1.792969 -5.132812 C 1.742188 -0.539062 5.082031 0.34375 8.152344 0.34375 Z M 8.152344 0.34375 "/></g></g></g><g fill="#ffffff" fill-opacity="1"><g transform="translate(53.837102, 25.617984)"><g><path d="M 2.429688 0.0234375 L 14.390625 0 C 15.175781 0 15.347656 -0.195312 15.347656 -1.054688 L 15.347656 -5.183594 C 15.347656 -6.015625 15.175781 -6.261719 14.414062 -6.261719 L 13.089844 -6.261719 C 12.671875 -6.261719 12.105469 -6.238281 12.082031 -5.230469 L 11.933594 -3.511719 L 6.949219 -3.511719 L 6.949219 -6.851562 L 9.136719 -6.851562 L 9.183594 -6.261719 C 9.210938 -5.96875 9.257812 -5.597656 9.554688 -5.597656 L 10.65625 -5.597656 C 11.222656 -5.597656 11.34375 -5.992188 11.34375 -6.359375 L 11.34375 -10.65625 C 11.34375 -11.273438 11.222656 -11.417969 10.65625 -11.417969 L 9.554688 -11.417969 C 9.332031 -11.417969 9.257812 -11.222656 9.234375 -11 L 9.160156 -10.363281 L 6.949219 -10.339844 L 6.949219 -13.679688 L 11.910156 -13.679688 L 12.035156 -11.933594 C 12.082031 -10.929688 12.621094 -10.902344 13.089844 -10.902344 L 14.367188 -10.902344 C 15.128906 -10.902344 15.324219 -11.125 15.324219 -11.984375 L 15.324219 -16.109375 C 15.324219 -17.042969 15.175781 -17.191406 14.269531 -17.191406 L 2.429688 -17.191406 C 1.546875 -17.191406 1.398438 -16.96875 1.398438 -16.0625 L 1.398438 -14.832031 C 1.398438 -13.925781 1.597656 -13.726562 2.429688 -13.726562 L 3.21875 -13.679688 L 3.21875 -3.488281 L 2.429688 -3.460938 C 1.597656 -3.4375 1.398438 -3.242188 1.398438 -2.332031 L 1.398438 -1.105469 C 1.398438 -0.195312 1.546875 0.0234375 2.429688 0.0234375 Z M 2.429688 0.0234375 "/></g></g></g><g fill="#ffffff" fill-opacity="1"><g transform="translate(70.732846, 25.617984)"><g><path d="M 15.054688 0.292969 C 15.816406 0.367188 16.40625 -0.0976562 16.40625 -0.835938 L 16.40625 -2.015625 C 16.40625 -2.480469 16.109375 -2.898438 15.273438 -2.996094 C 13.605469 -3.167969 12.992188 -4.738281 12.207031 -6.703125 C 14.683594 -7.539062 15.960938 -9.28125 15.960938 -11.617188 C 15.960938 -15.027344 13.582031 -17.140625 9.039062 -17.164062 L 2.429688 -17.191406 C 1.546875 -17.191406 1.398438 -16.992188 1.398438 -16.160156 L 1.398438 -14.832031 C 1.398438 -13.925781 1.597656 -13.726562 2.429688 -13.726562 L 3.21875 -13.679688 L 3.21875 -3.488281 L 2.429688 -3.460938 C 1.597656 -3.4375 1.398438 -3.242188 1.398438 -2.332031 L 1.398438 -1.105469 C 1.398438 -0.195312 1.546875 0.0234375 2.429688 0.0234375 L 7.761719 0.0234375 C 8.25 0.0234375 8.398438 -0.195312 8.398438 -1.105469 L 8.398438 -2.332031 C 8.398438 -3.242188 8.226562 -3.4375 7.761719 -3.460938 L 6.949219 -3.488281 L 6.902344 -6.164062 C 7.832031 -6.164062 8.300781 -6.164062 8.742188 -6.1875 C 9.699219 -2.675781 11.617188 0.0742188 15.054688 0.292969 Z M 6.949219 -9.355469 L 6.949219 -13.972656 L 8.128906 -13.972656 C 12.105469 -13.972656 12.277344 -12.671875 12.277344 -11.566406 C 12.277344 -10.3125 11.171875 -9.355469 7.980469 -9.355469 Z M 6.949219 -9.355469 "/></g></g></g><g fill="#ffffff" fill-opacity="1"><g transform="translate(87.53035, 25.617984)"><g><path d="M 8.03125 0.0234375 L 10.511719 0.0234375 C 11.664062 0.0234375 11.960938 -0.394531 12.5 -2.0625 L 16.476562 -14.414062 L 17.117188 -14.441406 C 18 -14.488281 18.125 -14.683594 18.125 -15.570312 L 18.125 -16.160156 C 18.125 -17.042969 17.953125 -17.265625 17.09375 -17.265625 L 12.035156 -17.265625 C 11.171875 -17.265625 10.953125 -17.042969 10.953125 -16.160156 L 10.953125 -15.570312 C 10.953125 -14.683594 11.101562 -14.390625 11.984375 -14.390625 L 12.722656 -14.390625 L 9.308594 -2.773438 L 5.894531 -14.390625 L 6.65625 -14.390625 C 7.539062 -14.390625 7.6875 -14.683594 7.6875 -15.570312 L 7.6875 -16.160156 C 7.6875 -17.042969 7.464844 -17.265625 6.605469 -17.265625 L 1.546875 -17.265625 C 0.6875 -17.265625 0.515625 -17.042969 0.515625 -16.160156 L 0.515625 -15.570312 C 0.515625 -14.683594 0.636719 -14.511719 1.523438 -14.441406 L 2.039062 -14.414062 L 5.992188 -2.160156 C 6.582031 -0.367188 6.851562 0.0234375 8.03125 0.0234375 Z M 8.03125 0.0234375 "/></g></g></g><g fill="#ffffff" fill-opacity="1"><g transform="translate(106.488957, 25.617984)"><g><path d="M 2.429688 0.0234375 L 14.390625 0 C 15.175781 0 15.347656 -0.195312 15.347656 -1.054688 L 15.347656 -5.183594 C 15.347656 -6.015625 15.175781 -6.261719 14.414062 -6.261719 L 13.089844 -6.261719 C 12.671875 -6.261719 12.105469 -6.238281 12.082031 -5.230469 L 11.933594 -3.511719 L 6.949219 -3.511719 L 6.949219 -6.851562 L 9.136719 -6.851562 L 9.183594 -6.261719 C 9.210938 -5.96875 9.257812 -5.597656 9.554688 -5.597656 L 10.65625 -5.597656 C 11.222656 -5.597656 11.34375 -5.992188 11.34375 -6.359375 L 11.34375 -10.65625 C 11.34375 -11.273438 11.222656 -11.417969 10.65625 -11.417969 L 9.554688 -11.417969 C 9.332031 -11.417969 9.257812 -11.222656 9.234375 -11 L 9.160156 -10.363281 L 6.949219 -10.339844 L 6.949219 -13.679688 L 11.910156 -13.679688 L 12.035156 -11.933594 C 12.082031 -10.929688 12.621094 -10.902344 13.089844 -10.902344 L 14.367188 -10.902344 C 15.128906 -10.902344 15.324219 -11.125 15.324219 -11.984375 L 15.324219 -16.109375 C 15.324219 -17.042969 15.175781 -17.191406 14.269531 -17.191406 L 2.429688 -17.191406 C 1.546875 -17.191406 1.398438 -16.96875 1.398438 -16.0625 L 1.398438 -14.832031 C 1.398438 -13.925781 1.597656 -13.726562 2.429688 -13.726562 L 3.21875 -13.679688 L 3.21875 -3.488281 L 2.429688 -3.460938 C 1.597656 -3.4375 1.398438 -3.242188 1.398438 -2.332031 L 1.398438 -1.105469 C 1.398438 -0.195312 1.546875 0.0234375 2.429688 0.0234375 Z M 2.429688 0.0234375 "/></g></g></g><g fill="#ffffff" fill-opacity="1"><g transform="translate(123.384701, 25.617984)"><g><path d="M 4.003906 0.269531 C 4.691406 0.269531 5.230469 0.0742188 5.769531 -0.292969 C 6.285156 -0.589844 6.484375 -1.324219 6.484375 -2.257812 C 6.484375 -3.4375 6.238281 -4.078125 5.769531 -4.347656 C 5.207031 -4.664062 4.691406 -4.789062 4.003906 -4.789062 C 3.316406 -4.789062 2.75 -4.59375 2.257812 -4.320312 C 1.769531 -4.027344 1.597656 -3.191406 1.597656 -2.113281 C 1.597656 -1.082031 1.792969 -0.441406 2.257812 -0.171875 C 2.773438 0.148438 3.316406 0.269531 4.003906 0.269531 Z M 4.003906 0.269531 "/></g></g></g></g></g></g></g></g></svg>