<svg xmlns="http://www.w3.org/2000/svg" xmlns:xlink="http://www.w3.org/1999/xlink" width="2048" zoomAndPan="magnify" viewBox="0 0 1536 1535.999932" height="2048" preserveAspectRatio="xMidYMid meet" version="1.0"><defs><g/><clipPath id="db6f3c5920"><rect x="0" width="830" y="0" height="462"/></clipPath><clipPath id="bdc19990c2"><path d="M 0.480469 57 L 134 57 L 134 89.960938 L 0.480469 89.960938 Z M 0.480469 57 " clip-rule="nonzero"/></clipPath><clipPath id="d76e7d4383"><rect x="0" width="134" y="0" height="33"/></clipPath><clipPath id="87ae65bb16"><path d="M 22 0.441406 L 135.601562 0.441406 L 135.601562 34 L 22 34 Z M 22 0.441406 " clip-rule="nonzero"/></clipPath><clipPath id="9d45c3dc1d"><rect x="0" width="114" y="0" height="34"/></clipPath><clipPath id="3c1de4796f"><path d="M 2 28 L 135.601562 28 L 135.601562 62 L 2 62 Z M 2 28 " clip-rule="nonzero"/></clipPath><clipPath id="af1e73eca5"><rect x="0" width="134" y="0" height="34"/></clipPath><clipPath id="dfddf683e6"><rect x="0" width="136" y="0" height="90"/></clipPath></defs><rect x="-153.6" width="1843.2" fill="#ffffff" y="-153.599993" height="1843.199919" fill-opacity="1"/><rect x="-153.6" width="1843.2" fill="#840000" y="-153.599993" height="1843.199919" fill-opacity="1"/><g transform="matrix(1, 0, 0, 1, 385, 545)"><g clip-path="url(#db6f3c5920)"><g fill="#ffffff" fill-opacity="1"><g transform="translate(3.564336, 323.52141)"><g><path d="M 0 -315.109375 L 112.171875 -315.109375 L 194.109375 -133.921875 C 199.566406 -141.484375 203.660156 -148.78125 206.390625 -155.8125 C 209.128906 -162.851562 210.5 -171.3125 210.5 -181.1875 C 210.5 -194.425781 208.5 -206.347656 204.5 -216.953125 C 200.507812 -227.554688 195.835938 -237.320312 190.484375 -246.25 C 185.128906 -255.1875 180.453125 -263.75 176.453125 -271.9375 C 172.460938 -280.132812 170.46875 -288.328125 170.46875 -296.515625 C 170.46875 -300.929688 171.46875 -305.132812 173.46875 -309.125 C 175.46875 -313.113281 178.144531 -315.109375 181.5 -315.109375 L 291.46875 -315.109375 L 145.578125 6.296875 Z M 0 -315.109375 "/></g></g></g><g fill="#ffffff" fill-opacity="1"><g transform="translate(294.93931, 323.52141)"><g><path d="M 9.453125 0 L 9.453125 -315.109375 L 122.890625 -315.109375 L 122.890625 0 Z M 9.453125 0 "/></g></g></g><g fill="#ffffff" fill-opacity="1"><g transform="translate(427.239303, 323.52141)"><g><path d="M 9.453125 -315.109375 L 184.34375 -315.109375 C 199.257812 -315.109375 212.597656 -312.113281 224.359375 -306.125 C 236.117188 -300.132812 245.359375 -291.625 252.078125 -280.59375 C 258.804688 -269.570312 262.171875 -256.5 262.171875 -241.375 C 262.171875 -230.65625 259.648438 -220.988281 254.609375 -212.375 C 249.566406 -203.769531 242.789062 -196.523438 234.28125 -190.640625 C 225.769531 -184.753906 216.316406 -180.234375 205.921875 -177.078125 C 195.523438 -173.929688 185.078125 -172.359375 174.578125 -172.359375 C 169.742188 -172.359375 165.488281 -172.566406 161.8125 -172.984375 C 158.132812 -173.410156 154.40625 -173.9375 150.625 -174.5625 C 146.84375 -175.195312 142.113281 -175.9375 136.4375 -176.78125 C 142.53125 -173.625 150.144531 -170.734375 159.28125 -168.109375 C 168.425781 -165.484375 178.300781 -162.644531 188.90625 -159.59375 C 199.519531 -156.550781 209.972656 -152.875 220.265625 -148.5625 C 230.554688 -144.257812 239.898438 -138.800781 248.296875 -132.1875 C 256.703125 -125.570312 263.375 -117.378906 268.3125 -107.609375 C 273.25 -97.835938 275.507812 -85.914062 275.09375 -71.84375 C 274.882812 -59.238281 272.3125 -48.679688 267.375 -40.171875 C 262.4375 -31.671875 255.972656 -24.738281 247.984375 -19.375 C 240.003906 -14.019531 231.285156 -9.976562 221.828125 -7.25 C 212.378906 -4.519531 202.820312 -2.628906 193.15625 -1.578125 C 183.5 -0.523438 174.570312 0 166.375 0 L 9.453125 0 Z M 23.640625 -301.5625 C 24.679688 -295.050781 27.828125 -286.910156 33.078125 -277.140625 C 38.335938 -267.367188 44.90625 -257.226562 52.78125 -246.71875 C 60.65625 -236.21875 69.367188 -226.398438 78.921875 -217.265625 C 88.484375 -208.128906 98.253906 -200.671875 108.234375 -194.890625 C 118.210938 -189.117188 127.71875 -186.234375 136.75 -186.234375 C 146.207031 -186.234375 154.191406 -189.59375 160.703125 -196.3125 C 167.210938 -203.03125 170.46875 -211.117188 170.46875 -220.578125 C 170.46875 -231.710938 167.84375 -242.109375 162.59375 -251.765625 C 157.34375 -261.429688 150.039062 -270.046875 140.6875 -277.609375 C 131.34375 -285.171875 120.523438 -291.050781 108.234375 -295.25 C 95.953125 -299.457031 82.664062 -301.5625 68.375 -301.5625 Z M 172.359375 -64.59375 C 172.359375 -78.25 169.050781 -91.378906 162.4375 -103.984375 C 155.820312 -116.585938 147.15625 -128.820312 136.4375 -140.6875 C 125.726562 -152.5625 114.125 -164.378906 101.625 -176.140625 C 89.125 -187.910156 76.882812 -199.882812 64.90625 -212.0625 C 52.9375 -224.25 42.539062 -236.851562 33.71875 -249.875 C 33.71875 -245.882812 35.660156 -240.003906 39.546875 -232.234375 C 43.429688 -224.460938 48.472656 -215.320312 54.671875 -204.8125 C 60.867188 -194.3125 67.484375 -182.8125 74.515625 -170.3125 C 81.554688 -157.8125 88.175781 -144.835938 94.375 -131.390625 C 100.570312 -117.953125 105.613281 -104.40625 109.5 -90.75 C 113.382812 -77.09375 115.328125 -63.753906 115.328125 -50.734375 L 115.328125 -10.71875 C 121.421875 -10.71875 127.773438 -11.765625 134.390625 -13.859375 C 141.003906 -15.960938 147.203125 -19.164062 152.984375 -23.46875 C 158.765625 -27.78125 163.4375 -33.347656 167 -40.171875 C 170.570312 -47.003906 172.359375 -55.144531 172.359375 -64.59375 Z M 172.359375 -64.59375 "/></g></g></g><g fill="#ffffff" fill-opacity="1"><g transform="translate(711.684276, 323.52141)"><g><path d="M 9.453125 -40.015625 C 9.453125 -53.671875 13.707031 -64.753906 22.21875 -73.265625 C 30.726562 -81.773438 41.914062 -86.03125 55.78125 -86.03125 C 69.425781 -86.03125 80.503906 -81.773438 89.015625 -73.265625 C 97.523438 -64.753906 101.78125 -53.671875 101.78125 -40.015625 C 101.78125 -26.148438 97.523438 -14.960938 89.015625 -6.453125 C 80.503906 2.042969 69.425781 6.296875 55.78125 6.296875 C 41.914062 6.296875 30.726562 2.042969 22.21875 -6.453125 C 13.707031 -14.960938 9.453125 -26.148438 9.453125 -40.015625 Z M 9.453125 -40.015625 "/></g></g></g></g></g><g transform="matrix(1, 0, 0, 1, 1086, 943)"><g clip-path="url(#dfddf683e6)"><g clip-path="url(#bdc19990c2)"><g transform="matrix(1, 0, 0, 1, -0.000000000000227374, 57)"><g clip-path="url(#d76e7d4383)"><g fill="#ffffff" fill-opacity="1"><g transform="translate(2.208791, 24.766134)"><g><path d="M 15.066406 0.292969 C 15.828125 0.367188 16.417969 -0.0976562 16.417969 -0.835938 L 16.417969 -2.015625 C 16.417969 -2.480469 16.121094 -2.898438 15.285156 -3 C 13.613281 -3.171875 13 -4.742188 12.214844 -6.710938 C 14.695312 -7.542969 15.972656 -9.289062 15.972656 -11.625 C 15.972656 -15.039062 13.589844 -17.152344 9.042969 -17.179688 L 2.433594 -17.203125 C 1.546875 -17.203125 1.402344 -17.007812 1.402344 -16.171875 L 1.402344 -14.84375 C 1.402344 -13.933594 1.597656 -13.738281 2.433594 -13.738281 L 3.21875 -13.6875 L 3.21875 -3.488281 L 2.433594 -3.464844 C 1.597656 -3.441406 1.402344 -3.242188 1.402344 -2.335938 L 1.402344 -1.105469 C 1.402344 -0.195312 1.546875 0.0234375 2.433594 0.0234375 L 7.765625 0.0234375 C 8.257812 0.0234375 8.40625 -0.195312 8.40625 -1.105469 L 8.40625 -2.335938 C 8.40625 -3.242188 8.234375 -3.441406 7.765625 -3.464844 L 6.953125 -3.488281 L 6.90625 -6.167969 C 7.839844 -6.167969 8.308594 -6.167969 8.75 -6.191406 C 9.707031 -2.679688 11.625 0.0742188 15.066406 0.292969 Z M 6.953125 -9.363281 L 6.953125 -13.984375 L 8.132812 -13.984375 C 12.117188 -13.984375 12.289062 -12.679688 12.289062 -11.574219 C 12.289062 -10.320312 11.183594 -9.363281 7.988281 -9.363281 Z M 6.953125 -9.363281 "/></g></g></g><g fill="#ffffff" fill-opacity="1"><g transform="translate(19.338378, 24.766134)"><g><path d="M 2.433594 0.0234375 L 14.402344 0 C 15.1875 0 15.359375 -0.195312 15.359375 -1.058594 L 15.359375 -5.183594 C 15.359375 -6.019531 15.1875 -6.265625 14.425781 -6.265625 L 13.097656 -6.265625 C 12.679688 -6.265625 12.117188 -6.242188 12.089844 -5.234375 L 11.945312 -3.515625 L 6.953125 -3.515625 L 6.953125 -6.855469 L 9.140625 -6.855469 L 9.191406 -6.265625 C 9.214844 -5.972656 9.265625 -5.601562 9.558594 -5.601562 L 10.664062 -5.601562 C 11.230469 -5.601562 11.355469 -5.996094 11.355469 -6.363281 L 11.355469 -10.664062 C 11.355469 -11.28125 11.230469 -11.429688 10.664062 -11.429688 L 9.558594 -11.429688 C 9.339844 -11.429688 9.265625 -11.230469 9.242188 -11.011719 L 9.167969 -10.371094 L 6.953125 -10.347656 L 6.953125 -13.6875 L 11.917969 -13.6875 L 12.042969 -11.945312 C 12.089844 -10.9375 12.632812 -10.910156 13.097656 -10.910156 L 14.378906 -10.910156 C 15.140625 -10.910156 15.335938 -11.132812 15.335938 -11.992188 L 15.335938 -16.121094 C 15.335938 -17.054688 15.1875 -17.203125 14.277344 -17.203125 L 2.433594 -17.203125 C 1.546875 -17.203125 1.402344 -16.980469 1.402344 -16.074219 L 1.402344 -14.84375 C 1.402344 -13.933594 1.597656 -13.738281 2.433594 -13.738281 L 3.21875 -13.6875 L 3.21875 -3.488281 L 2.433594 -3.464844 C 1.597656 -3.441406 1.402344 -3.242188 1.402344 -2.335938 L 1.402344 -1.105469 C 1.402344 -0.195312 1.546875 0.0234375 2.433594 0.0234375 Z M 2.433594 0.0234375 "/></g></g></g><g fill="#ffffff" fill-opacity="1"><g transform="translate(36.246777, 24.766134)"><g><path d="M 9.019531 0.46875 C 12.609375 0.46875 15.507812 -1.007812 15.753906 -4.867188 C 15.828125 -5.628906 15.382812 -6.21875 14.621094 -6.21875 L 13.148438 -6.21875 C 12.679688 -6.21875 12.238281 -5.972656 12.140625 -5.457031 C 11.96875 -3.761719 10.738281 -3.070312 8.996094 -3.070312 C 6.710938 -3.070312 5.480469 -4.816406 5.457031 -8.453125 C 5.480469 -12.164062 6.710938 -13.984375 8.996094 -13.984375 C 10.8125 -13.984375 11.773438 -13.222656 12.191406 -10.960938 C 12.238281 -9.902344 12.902344 -9.878906 13.417969 -9.878906 L 14.917969 -9.878906 C 15.851562 -9.878906 16.046875 -10.125 16.046875 -11.011719 L 16.046875 -16.074219 C 16.046875 -16.957031 15.851562 -17.152344 14.941406 -17.152344 L 14.402344 -17.152344 C 13.761719 -17.152344 13.589844 -17.03125 13.492188 -16.664062 L 13.296875 -15.679688 C 12.460938 -17.105469 11.082031 -17.523438 9.019531 -17.523438 C 3.90625 -17.523438 1.746094 -14.550781 1.71875 -8.480469 C 1.746094 -2.507812 3.90625 0.46875 9.019531 0.46875 Z M 9.019531 0.46875 "/></g></g></g><g fill="#ffffff" fill-opacity="1"><g transform="translate(53.990771, 24.766134)"><g><path d="M 9.167969 -17.523438 C 3.882812 -17.523438 1.71875 -14.523438 1.71875 -8.453125 C 1.71875 -2.507812 3.882812 0.46875 9.167969 0.46875 C 14.402344 0.46875 16.539062 -2.507812 16.539062 -8.453125 C 16.539062 -14.523438 14.402344 -17.523438 9.167969 -17.523438 Z M 5.457031 -8.429688 C 5.457031 -12.117188 6.734375 -13.984375 9.140625 -13.984375 C 11.550781 -13.984375 12.804688 -12.117188 12.804688 -8.429688 C 12.804688 -4.839844 11.550781 -3.046875 9.140625 -3.046875 C 6.734375 -3.046875 5.457031 -4.839844 5.457031 -8.429688 Z M 5.457031 -8.429688 "/></g></g></g><g fill="#ffffff" fill-opacity="1"><g transform="translate(72.373765, 24.766134)"><g><path d="M 8.035156 0.0234375 L 10.519531 0.0234375 C 11.671875 0.0234375 11.96875 -0.394531 12.507812 -2.0625 L 16.492188 -14.425781 L 17.128906 -14.449219 C 18.015625 -14.5 18.136719 -14.695312 18.136719 -15.582031 L 18.136719 -16.171875 C 18.136719 -17.054688 17.964844 -17.277344 17.105469 -17.277344 L 12.042969 -17.277344 C 11.183594 -17.277344 10.960938 -17.054688 10.960938 -16.171875 L 10.960938 -15.582031 C 10.960938 -14.695312 11.109375 -14.402344 11.992188 -14.402344 L 12.730469 -14.402344 L 9.3125 -2.777344 L 5.898438 -14.402344 L 6.660156 -14.402344 C 7.542969 -14.402344 7.691406 -14.695312 7.691406 -15.582031 L 7.691406 -16.171875 C 7.691406 -17.054688 7.472656 -17.277344 6.609375 -17.277344 L 1.546875 -17.277344 C 0.6875 -17.277344 0.515625 -17.054688 0.515625 -16.171875 L 0.515625 -15.582031 C 0.515625 -14.695312 0.640625 -14.523438 1.523438 -14.449219 L 2.039062 -14.425781 L 5.996094 -2.164062 C 6.585938 -0.367188 6.855469 0.0234375 8.035156 0.0234375 Z M 8.035156 0.0234375 "/></g></g></g><g fill="#ffffff" fill-opacity="1"><g transform="translate(91.346574, 24.766134)"><g><path d="M 2.433594 0.0234375 L 14.402344 0 C 15.1875 0 15.359375 -0.195312 15.359375 -1.058594 L 15.359375 -5.183594 C 15.359375 -6.019531 15.1875 -6.265625 14.425781 -6.265625 L 13.097656 -6.265625 C 12.679688 -6.265625 12.117188 -6.242188 12.089844 -5.234375 L 11.945312 -3.515625 L 6.953125 -3.515625 L 6.953125 -6.855469 L 9.140625 -6.855469 L 9.191406 -6.265625 C 9.214844 -5.972656 9.265625 -5.601562 9.558594 -5.601562 L 10.664062 -5.601562 C 11.230469 -5.601562 11.355469 -5.996094 11.355469 -6.363281 L 11.355469 -10.664062 C 11.355469 -11.28125 11.230469 -11.429688 10.664062 -11.429688 L 9.558594 -11.429688 C 9.339844 -11.429688 9.265625 -11.230469 9.242188 -11.011719 L 9.167969 -10.371094 L 6.953125 -10.347656 L 6.953125 -13.6875 L 11.917969 -13.6875 L 12.042969 -11.945312 C 12.089844 -10.9375 12.632812 -10.910156 13.097656 -10.910156 L 14.378906 -10.910156 C 15.140625 -10.910156 15.335938 -11.132812 15.335938 -11.992188 L 15.335938 -16.121094 C 15.335938 -17.054688 15.1875 -17.203125 14.277344 -17.203125 L 2.433594 -17.203125 C 1.546875 -17.203125 1.402344 -16.980469 1.402344 -16.074219 L 1.402344 -14.84375 C 1.402344 -13.933594 1.597656 -13.738281 2.433594 -13.738281 L 3.21875 -13.6875 L 3.21875 -3.488281 L 2.433594 -3.464844 C 1.597656 -3.441406 1.402344 -3.242188 1.402344 -2.335938 L 1.402344 -1.105469 C 1.402344 -0.195312 1.546875 0.0234375 2.433594 0.0234375 Z M 2.433594 0.0234375 "/></g></g></g><g fill="#ffffff" fill-opacity="1"><g transform="translate(108.254973, 24.766134)"><g><path d="M 15.066406 0.292969 C 15.828125 0.367188 16.417969 -0.0976562 16.417969 -0.835938 L 16.417969 -2.015625 C 16.417969 -2.480469 16.121094 -2.898438 15.285156 -3 C 13.613281 -3.171875 13 -4.742188 12.214844 -6.710938 C 14.695312 -7.542969 15.972656 -9.289062 15.972656 -11.625 C 15.972656 -15.039062 13.589844 -17.152344 9.042969 -17.179688 L 2.433594 -17.203125 C 1.546875 -17.203125 1.402344 -17.007812 1.402344 -16.171875 L 1.402344 -14.84375 C 1.402344 -13.933594 1.597656 -13.738281 2.433594 -13.738281 L 3.21875 -13.6875 L 3.21875 -3.488281 L 2.433594 -3.464844 C 1.597656 -3.441406 1.402344 -3.242188 1.402344 -2.335938 L 1.402344 -1.105469 C 1.402344 -0.195312 1.546875 0.0234375 2.433594 0.0234375 L 7.765625 0.0234375 C 8.257812 0.0234375 8.40625 -0.195312 8.40625 -1.105469 L 8.40625 -2.335938 C 8.40625 -3.242188 8.234375 -3.441406 7.765625 -3.464844 L 6.953125 -3.488281 L 6.90625 -6.167969 C 7.839844 -6.167969 8.308594 -6.167969 8.75 -6.191406 C 9.707031 -2.679688 11.625 0.0742188 15.066406 0.292969 Z M 6.953125 -9.363281 L 6.953125 -13.984375 L 8.132812 -13.984375 C 12.117188 -13.984375 12.289062 -12.679688 12.289062 -11.574219 C 12.289062 -10.320312 11.183594 -9.363281 7.988281 -9.363281 Z M 6.953125 -9.363281 "/></g></g></g><g fill="#ffffff" fill-opacity="1"><g transform="translate(125.38456, 24.766134)"><g><path d="M 4.007812 0.269531 C 4.695312 0.269531 5.234375 0.0742188 5.773438 -0.292969 C 6.292969 -0.589844 6.488281 -1.328125 6.488281 -2.261719 C 6.488281 -3.441406 6.242188 -4.078125 5.773438 -4.351562 C 5.210938 -4.667969 4.695312 -4.792969 4.007812 -4.792969 C 3.316406 -4.792969 2.753906 -4.597656 2.261719 -4.324219 C 1.769531 -4.03125 1.597656 -3.195312 1.597656 -2.113281 C 1.597656 -1.082031 1.792969 -0.441406 2.261719 -0.171875 C 2.777344 0.148438 3.316406 0.269531 4.007812 0.269531 Z M 4.007812 0.269531 "/></g></g></g></g></g></g><g clip-path="url(#87ae65bb16)"><g transform="matrix(1, 0, 0, 1, 22, -0.000000000000113687)"><g clip-path="url(#9d45c3dc1d)"><g fill="#ffffff" fill-opacity="1"><g transform="translate(2.654254, 25.241217)"><g><path d="M 2.433594 0.0234375 L 8.796875 0 C 13.664062 0 16.121094 -2.308594 16.171875 -8.453125 C 16.121094 -14.5 13.664062 -17.203125 8.796875 -17.203125 L 2.433594 -17.226562 C 1.546875 -17.203125 1.402344 -17.007812 1.402344 -16.097656 L 1.402344 -15.554688 C 1.402344 -13.960938 1.597656 -13.761719 2.433594 -13.761719 L 3.21875 -13.714844 L 3.21875 -3.488281 L 2.433594 -3.464844 C 1.597656 -3.441406 1.402344 -3.242188 1.402344 -1.648438 L 1.402344 -1.105469 C 1.402344 -0.195312 1.546875 0 2.433594 0.0234375 Z M 6.953125 -3.488281 L 6.953125 -13.6875 L 8.085938 -13.6875 C 11.378906 -13.6875 12.433594 -11.917969 12.433594 -8.429688 C 12.433594 -5.257812 11.378906 -3.488281 8.085938 -3.488281 Z M 6.953125 -3.488281 "/></g></g></g><g fill="#ffffff" fill-opacity="1"><g transform="translate(20.398247, 25.241217)"><g><path d="M 2.433594 0.0234375 L 14.402344 0 C 15.1875 0 15.359375 -0.195312 15.359375 -1.058594 L 15.359375 -5.183594 C 15.359375 -6.019531 15.1875 -6.265625 14.425781 -6.265625 L 13.097656 -6.265625 C 12.679688 -6.265625 12.117188 -6.242188 12.089844 -5.234375 L 11.945312 -3.515625 L 6.953125 -3.515625 L 6.953125 -6.855469 L 9.140625 -6.855469 L 9.191406 -6.265625 C 9.214844 -5.972656 9.265625 -5.601562 9.558594 -5.601562 L 10.664062 -5.601562 C 11.230469 -5.601562 11.355469 -5.996094 11.355469 -6.363281 L 11.355469 -10.664062 C 11.355469 -11.28125 11.230469 -11.429688 10.664062 -11.429688 L 9.558594 -11.429688 C 9.339844 -11.429688 9.265625 -11.230469 9.242188 -11.011719 L 9.167969 -10.371094 L 6.953125 -10.347656 L 6.953125 -13.6875 L 11.917969 -13.6875 L 12.042969 -11.945312 C 12.089844 -10.9375 12.632812 -10.910156 13.097656 -10.910156 L 14.378906 -10.910156 C 15.140625 -10.910156 15.335938 -11.132812 15.335938 -11.992188 L 15.335938 -16.121094 C 15.335938 -17.054688 15.1875 -17.203125 14.277344 -17.203125 L 2.433594 -17.203125 C 1.546875 -17.203125 1.402344 -16.980469 1.402344 -16.074219 L 1.402344 -14.84375 C 1.402344 -13.933594 1.597656 -13.738281 2.433594 -13.738281 L 3.21875 -13.6875 L 3.21875 -3.488281 L 2.433594 -3.464844 C 1.597656 -3.441406 1.402344 -3.242188 1.402344 -2.335938 L 1.402344 -1.105469 C 1.402344 -0.195312 1.546875 0.0234375 2.433594 0.0234375 Z M 2.433594 0.0234375 "/></g></g></g><g fill="#ffffff" fill-opacity="1"><g transform="translate(37.306647, 25.241217)"><g><path d="M 2.433594 0.0234375 L 8.550781 0.0234375 C 9.414062 0.0234375 9.558594 -0.195312 9.558594 -1.105469 L 9.558594 -2.335938 C 9.558594 -3.242188 9.386719 -3.441406 8.527344 -3.464844 L 6.953125 -3.488281 L 6.90625 -5.847656 L 8.550781 -5.847656 C 13.394531 -5.875 15.851562 -7.988281 15.851562 -11.453125 C 15.851562 -15.039062 13.542969 -17.152344 8.996094 -17.179688 L 2.433594 -17.203125 C 1.546875 -17.203125 1.402344 -17.007812 1.402344 -16.171875 L 1.402344 -14.84375 C 1.402344 -13.933594 1.597656 -13.738281 2.433594 -13.738281 L 3.21875 -13.6875 L 3.21875 -3.488281 L 2.433594 -3.464844 C 1.597656 -3.441406 1.402344 -3.242188 1.402344 -2.335938 L 1.402344 -1.105469 C 1.402344 -0.195312 1.546875 0.0234375 2.433594 0.0234375 Z M 6.953125 -9.042969 L 6.953125 -13.984375 L 8.0625 -13.984375 C 12.066406 -13.984375 12.191406 -12.679688 12.191406 -11.429688 C 12.191406 -10.003906 11.109375 -9.042969 7.9375 -9.042969 Z M 6.953125 -9.042969 "/></g></g></g><g fill="#ffffff" fill-opacity="1"><g transform="translate(54.01842, 25.241217)"><g><path d="M 2.457031 0.0234375 L 13.664062 0.0234375 C 14.597656 0.0234375 14.722656 -0.121094 14.722656 -1.058594 L 14.722656 -5.578125 C 14.722656 -6.414062 14.550781 -6.660156 13.761719 -6.660156 L 12.484375 -6.660156 C 12.042969 -6.660156 11.453125 -6.636719 11.429688 -5.601562 L 11.304688 -3.488281 L 7.175781 -3.488281 L 7.175781 -13.664062 L 8.480469 -13.6875 C 9.3125 -13.6875 9.535156 -13.886719 9.535156 -14.820312 L 9.535156 -16.046875 C 9.535156 -16.957031 9.386719 -17.179688 8.527344 -17.179688 L 2.433594 -17.179688 C 1.546875 -17.179688 1.402344 -16.957031 1.402344 -16.046875 L 1.402344 -14.820312 C 1.402344 -13.886719 1.648438 -13.6875 2.480469 -13.6875 L 3.441406 -13.664062 L 3.441406 -3.488281 L 2.480469 -3.464844 C 1.621094 -3.464844 1.449219 -3.269531 1.449219 -2.359375 L 1.449219 -1.105469 C 1.449219 -0.195312 1.597656 0.0234375 2.457031 0.0234375 Z M 2.457031 0.0234375 "/></g></g></g><g fill="#ffffff" fill-opacity="1"><g transform="translate(69.747162, 25.241217)"><g><path d="M 9.167969 -17.523438 C 3.882812 -17.523438 1.71875 -14.523438 1.71875 -8.453125 C 1.71875 -2.507812 3.882812 0.46875 9.167969 0.46875 C 14.402344 0.46875 16.539062 -2.507812 16.539062 -8.453125 C 16.539062 -14.523438 14.402344 -17.523438 9.167969 -17.523438 Z M 5.457031 -8.429688 C 5.457031 -12.117188 6.734375 -13.984375 9.140625 -13.984375 C 11.550781 -13.984375 12.804688 -12.117188 12.804688 -8.429688 C 12.804688 -4.839844 11.550781 -3.046875 9.140625 -3.046875 C 6.734375 -3.046875 5.457031 -4.839844 5.457031 -8.429688 Z M 5.457031 -8.429688 "/></g></g></g><g fill="#ffffff" fill-opacity="1"><g transform="translate(87.933531, 25.241217)"><g><path d="M 5.824219 0.0234375 L 11.527344 0.0234375 C 12.386719 0.0234375 12.535156 -0.195312 12.535156 -1.105469 L 12.535156 -2.335938 C 12.535156 -3.242188 12.363281 -3.441406 11.5 -3.464844 L 10.542969 -3.488281 L 10.542969 -5.257812 L 15.113281 -14.425781 L 15.679688 -14.449219 C 16.539062 -14.476562 16.6875 -14.671875 16.6875 -15.582031 L 16.6875 -16.171875 C 16.6875 -17.054688 16.492188 -17.253906 15.65625 -17.253906 L 10.59375 -17.253906 C 9.730469 -17.253906 9.511719 -17.054688 9.511719 -16.171875 L 9.511719 -15.582031 C 9.511719 -14.671875 9.660156 -14.425781 10.542969 -14.402344 L 11.378906 -14.378906 L 8.699219 -8.945312 L 5.972656 -14.378906 L 6.734375 -14.402344 C 7.644531 -14.425781 7.765625 -14.671875 7.765625 -15.582031 L 7.765625 -16.171875 C 7.765625 -17.054688 7.542969 -17.253906 6.683594 -17.253906 L 1.621094 -17.253906 C 0.785156 -17.253906 0.589844 -17.054688 0.589844 -16.171875 L 0.589844 -15.582031 C 0.589844 -14.671875 0.738281 -14.476562 1.597656 -14.449219 L 2.0625 -14.449219 L 6.808594 -5.234375 L 6.808594 -3.488281 L 5.847656 -3.464844 C 4.988281 -3.441406 4.816406 -3.242188 4.816406 -2.335938 L 4.816406 -1.105469 C 4.816406 -0.195312 4.964844 0.0234375 5.824219 0.0234375 Z M 5.824219 0.0234375 "/></g></g></g><g fill="#ffffff" fill-opacity="1"><g transform="translate(103.367366, 25.241217)"><g><path d="M 4.007812 0.269531 C 4.695312 0.269531 5.234375 0.0742188 5.773438 -0.292969 C 6.292969 -0.589844 6.488281 -1.328125 6.488281 -2.261719 C 6.488281 -3.441406 6.242188 -4.078125 5.773438 -4.351562 C 5.210938 -4.667969 4.695312 -4.792969 4.007812 -4.792969 C 3.316406 -4.792969 2.753906 -4.597656 2.261719 -4.324219 C 1.769531 -4.03125 1.597656 -3.195312 1.597656 -2.113281 C 1.597656 -1.082031 1.792969 -0.441406 2.261719 -0.171875 C 2.777344 0.148438 3.316406 0.269531 4.007812 0.269531 Z M 4.007812 0.269531 "/></g></g></g></g></g></g><g clip-path="url(#3c1de4796f)"><g transform="matrix(1, 0, 0, 1, 2, 28)"><g clip-path="url(#af1e73eca5)"><g fill="#ffffff" fill-opacity="1"><g transform="translate(0.958223, 25.503617)"><g><path d="M 9.167969 -17.523438 C 3.882812 -17.523438 1.71875 -14.523438 1.71875 -8.453125 C 1.71875 -2.507812 3.882812 0.46875 9.167969 0.46875 C 14.402344 0.46875 16.539062 -2.507812 16.539062 -8.453125 C 16.539062 -14.523438 14.402344 -17.523438 9.167969 -17.523438 Z M 5.457031 -8.429688 C 5.457031 -12.117188 6.734375 -13.984375 9.140625 -13.984375 C 11.550781 -13.984375 12.804688 -12.117188 12.804688 -8.429688 C 12.804688 -4.839844 11.550781 -3.046875 9.140625 -3.046875 C 6.734375 -3.046875 5.457031 -4.839844 5.457031 -8.429688 Z M 5.457031 -8.429688 "/></g></g></g><g fill="#ffffff" fill-opacity="1"><g transform="translate(19.537812, 25.503617)"><g><path d="M 2.433594 0.0234375 L 8.75 0 C 13.441406 -0.0234375 15.902344 -2.1875 15.902344 -4.964844 C 15.902344 -7.347656 14.328125 -8.921875 11.820312 -9.140625 C 13.738281 -9.488281 14.941406 -10.886719 14.941406 -12.78125 C 14.941406 -15.433594 13.023438 -17.179688 8.429688 -17.203125 L 2.433594 -17.226562 C 1.546875 -17.226562 1.402344 -17.007812 1.402344 -16.195312 L 1.402344 -14.84375 C 1.402344 -13.933594 1.597656 -13.738281 2.433594 -13.738281 L 3.269531 -13.714844 L 3.269531 -3.488281 L 2.433594 -3.464844 C 1.597656 -3.441406 1.402344 -3.242188 1.402344 -2.335938 L 1.402344 -1.007812 C 1.402344 -0.195312 1.546875 0.0234375 2.433594 0.0234375 Z M 7.003906 -3.195312 L 7.003906 -7.371094 L 8.722656 -7.371094 C 11.15625 -7.371094 12.164062 -6.757812 12.164062 -5.359375 C 12.164062 -4.324219 11.917969 -3.269531 8.796875 -3.195312 Z M 7.003906 -10.175781 L 7.003906 -13.984375 L 8.652344 -14.007812 C 10.960938 -14.03125 11.207031 -12.878906 11.207031 -12.019531 C 11.207031 -11.253906 10.617188 -10.25 8.722656 -10.175781 Z M 7.003906 -10.175781 "/></g></g></g><g fill="#ffffff" fill-opacity="1"><g transform="translate(37.036055, 25.503617)"><g><path d="M 8.160156 0.34375 C 12.609375 0.34375 14.746094 -1.03125 14.746094 -4.867188 C 14.746094 -8.160156 12.632812 -8.996094 8.996094 -10.25 C 6.660156 -11.109375 5.578125 -11.453125 5.578125 -12.460938 C 5.578125 -13.640625 6.5625 -13.960938 8.160156 -13.960938 C 9.730469 -13.984375 10.910156 -13.296875 11.328125 -11.773438 C 11.625 -10.789062 12.117188 -10.691406 12.632812 -10.691406 L 13.738281 -10.691406 C 14.671875 -10.691406 14.792969 -10.9375 14.792969 -11.84375 L 14.894531 -16 C 14.917969 -16.910156 14.648438 -17.105469 13.738281 -17.105469 L 13.199219 -17.105469 C 12.558594 -17.105469 12.386719 -16.957031 12.289062 -16.613281 L 12.140625 -15.554688 C 11.402344 -16.761719 10.027344 -17.472656 7.914062 -17.472656 C 4.25 -17.472656 1.867188 -16.320312 1.867188 -12.925781 C 1.890625 -10.617188 2.875 -8.480469 6.21875 -7.398438 C 9.070312 -6.4375 10.984375 -5.972656 10.984375 -5.011719 C 10.984375 -3.613281 9.976562 -3.171875 7.9375 -3.144531 C 6.734375 -3.121094 5.332031 -3.6875 5.382812 -5.726562 C 5.382812 -6.242188 4.816406 -6.488281 4.351562 -6.488281 L 2.875 -6.488281 C 2.113281 -6.488281 1.820312 -5.921875 1.792969 -5.136719 C 1.746094 -0.539062 5.085938 0.34375 8.160156 0.34375 Z M 8.160156 0.34375 "/></g></g></g><g fill="#ffffff" fill-opacity="1"><g transform="translate(53.772423, 25.503617)"><g><path d="M 2.433594 0.0234375 L 14.402344 0 C 15.1875 0 15.359375 -0.195312 15.359375 -1.058594 L 15.359375 -5.183594 C 15.359375 -6.019531 15.1875 -6.265625 14.425781 -6.265625 L 13.097656 -6.265625 C 12.679688 -6.265625 12.117188 -6.242188 12.089844 -5.234375 L 11.945312 -3.515625 L 6.953125 -3.515625 L 6.953125 -6.855469 L 9.140625 -6.855469 L 9.191406 -6.265625 C 9.214844 -5.972656 9.265625 -5.601562 9.558594 -5.601562 L 10.664062 -5.601562 C 11.230469 -5.601562 11.355469 -5.996094 11.355469 -6.363281 L 11.355469 -10.664062 C 11.355469 -11.28125 11.230469 -11.429688 10.664062 -11.429688 L 9.558594 -11.429688 C 9.339844 -11.429688 9.265625 -11.230469 9.242188 -11.011719 L 9.167969 -10.371094 L 6.953125 -10.347656 L 6.953125 -13.6875 L 11.917969 -13.6875 L 12.042969 -11.945312 C 12.089844 -10.9375 12.632812 -10.910156 13.097656 -10.910156 L 14.378906 -10.910156 C 15.140625 -10.910156 15.335938 -11.132812 15.335938 -11.992188 L 15.335938 -16.121094 C 15.335938 -17.054688 15.1875 -17.203125 14.277344 -17.203125 L 2.433594 -17.203125 C 1.546875 -17.203125 1.402344 -16.980469 1.402344 -16.074219 L 1.402344 -14.84375 C 1.402344 -13.933594 1.597656 -13.738281 2.433594 -13.738281 L 3.21875 -13.6875 L 3.21875 -3.488281 L 2.433594 -3.464844 C 1.597656 -3.441406 1.402344 -3.242188 1.402344 -2.335938 L 1.402344 -1.105469 C 1.402344 -0.195312 1.546875 0.0234375 2.433594 0.0234375 Z M 2.433594 0.0234375 "/></g></g></g><g fill="#ffffff" fill-opacity="1"><g transform="translate(70.680822, 25.503617)"><g><path d="M 15.066406 0.292969 C 15.828125 0.367188 16.417969 -0.0976562 16.417969 -0.835938 L 16.417969 -2.015625 C 16.417969 -2.480469 16.121094 -2.898438 15.285156 -3 C 13.613281 -3.171875 13 -4.742188 12.214844 -6.710938 C 14.695312 -7.542969 15.972656 -9.289062 15.972656 -11.625 C 15.972656 -15.039062 13.589844 -17.152344 9.042969 -17.179688 L 2.433594 -17.203125 C 1.546875 -17.203125 1.402344 -17.007812 1.402344 -16.171875 L 1.402344 -14.84375 C 1.402344 -13.933594 1.597656 -13.738281 2.433594 -13.738281 L 3.21875 -13.6875 L 3.21875 -3.488281 L 2.433594 -3.464844 C 1.597656 -3.441406 1.402344 -3.242188 1.402344 -2.335938 L 1.402344 -1.105469 C 1.402344 -0.195312 1.546875 0.0234375 2.433594 0.0234375 L 7.765625 0.0234375 C 8.257812 0.0234375 8.40625 -0.195312 8.40625 -1.105469 L 8.40625 -2.335938 C 8.40625 -3.242188 8.234375 -3.441406 7.765625 -3.464844 L 6.953125 -3.488281 L 6.90625 -6.167969 C 7.839844 -6.167969 8.308594 -6.167969 8.75 -6.191406 C 9.707031 -2.679688 11.625 0.0742188 15.066406 0.292969 Z M 6.953125 -9.363281 L 6.953125 -13.984375 L 8.132812 -13.984375 C 12.117188 -13.984375 12.289062 -12.679688 12.289062 -11.574219 C 12.289062 -10.320312 11.183594 -9.363281 7.988281 -9.363281 Z M 6.953125 -9.363281 "/></g></g></g><g fill="#ffffff" fill-opacity="1"><g transform="translate(87.490908, 25.503617)"><g><path d="M 8.035156 0.0234375 L 10.519531 0.0234375 C 11.671875 0.0234375 11.96875 -0.394531 12.507812 -2.0625 L 16.492188 -14.425781 L 17.128906 -14.449219 C 18.015625 -14.5 18.136719 -14.695312 18.136719 -15.582031 L 18.136719 -16.171875 C 18.136719 -17.054688 17.964844 -17.277344 17.105469 -17.277344 L 12.042969 -17.277344 C 11.183594 -17.277344 10.960938 -17.054688 10.960938 -16.171875 L 10.960938 -15.582031 C 10.960938 -14.695312 11.109375 -14.402344 11.992188 -14.402344 L 12.730469 -14.402344 L 9.3125 -2.777344 L 5.898438 -14.402344 L 6.660156 -14.402344 C 7.542969 -14.402344 7.691406 -14.695312 7.691406 -15.582031 L 7.691406 -16.171875 C 7.691406 -17.054688 7.472656 -17.277344 6.609375 -17.277344 L 1.546875 -17.277344 C 0.6875 -17.277344 0.515625 -17.054688 0.515625 -16.171875 L 0.515625 -15.582031 C 0.515625 -14.695312 0.640625 -14.523438 1.523438 -14.449219 L 2.039062 -14.425781 L 5.996094 -2.164062 C 6.585938 -0.367188 6.855469 0.0234375 8.035156 0.0234375 Z M 8.035156 0.0234375 "/></g></g></g><g fill="#ffffff" fill-opacity="1"><g transform="translate(106.463716, 25.503617)"><g><path d="M 2.433594 0.0234375 L 14.402344 0 C 15.1875 0 15.359375 -0.195312 15.359375 -1.058594 L 15.359375 -5.183594 C 15.359375 -6.019531 15.1875 -6.265625 14.425781 -6.265625 L 13.097656 -6.265625 C 12.679688 -6.265625 12.117188 -6.242188 12.089844 -5.234375 L 11.945312 -3.515625 L 6.953125 -3.515625 L 6.953125 -6.855469 L 9.140625 -6.855469 L 9.191406 -6.265625 C 9.214844 -5.972656 9.265625 -5.601562 9.558594 -5.601562 L 10.664062 -5.601562 C 11.230469 -5.601562 11.355469 -5.996094 11.355469 -6.363281 L 11.355469 -10.664062 C 11.355469 -11.28125 11.230469 -11.429688 10.664062 -11.429688 L 9.558594 -11.429688 C 9.339844 -11.429688 9.265625 -11.230469 9.242188 -11.011719 L 9.167969 -10.371094 L 6.953125 -10.347656 L 6.953125 -13.6875 L 11.917969 -13.6875 L 12.042969 -11.945312 C 12.089844 -10.9375 12.632812 -10.910156 13.097656 -10.910156 L 14.378906 -10.910156 C 15.140625 -10.910156 15.335938 -11.132812 15.335938 -11.992188 L 15.335938 -16.121094 C 15.335938 -17.054688 15.1875 -17.203125 14.277344 -17.203125 L 2.433594 -17.203125 C 1.546875 -17.203125 1.402344 -16.980469 1.402344 -16.074219 L 1.402344 -14.84375 C 1.402344 -13.933594 1.597656 -13.738281 2.433594 -13.738281 L 3.21875 -13.6875 L 3.21875 -3.488281 L 2.433594 -3.464844 C 1.597656 -3.441406 1.402344 -3.242188 1.402344 -2.335938 L 1.402344 -1.105469 C 1.402344 -0.195312 1.546875 0.0234375 2.433594 0.0234375 Z M 2.433594 0.0234375 "/></g></g></g><g fill="#ffffff" fill-opacity="1"><g transform="translate(123.372115, 25.503617)"><g><path d="M 4.007812 0.269531 C 4.695312 0.269531 5.234375 0.0742188 5.773438 -0.292969 C 6.292969 -0.589844 6.488281 -1.328125 6.488281 -2.261719 C 6.488281 -3.441406 6.242188 -4.078125 5.773438 -4.351562 C 5.210938 -4.667969 4.695312 -4.792969 4.007812 -4.792969 C 3.316406 -4.792969 2.753906 -4.597656 2.261719 -4.324219 C 1.769531 -4.03125 1.597656 -3.195312 1.597656 -2.113281 C 1.597656 -1.082031 1.792969 -0.441406 2.261719 -0.171875 C 2.777344 0.148438 3.316406 0.269531 4.007812 0.269531 Z M 4.007812 0.269531 "/></g></g></g></g></g></g></g></g></svg>